<?xml version="1.0" standalone="no"?>
<!DOCTYPE svg PUBLIC "-//W3C//DTD SVG 20010904//EN"
 "http://www.w3.org/TR/2001/REC-SVG-20010904/DTD/svg10.dtd">
<svg version="1.0" xmlns="http://www.w3.org/2000/svg"
 width="640.000000pt" height="640.000000pt" viewBox="0 0 640.000000 640.000000"
 preserveAspectRatio="xMidYMid meet">
<metadata>
Created by potrace 1.14, written by Peter Selinger 2001-2017
</metadata>
<g transform="translate(0.000000,640.000000) scale(0.100000,-0.100000)"
fill="#000000" stroke="none">
<path d="M1068 5741 c-73 -24 -134 -59 -186 -110 -63 -61 -855 -1255 -871
-1313 -21 -74 -11 -201 21 -270 34 -73 103 -142 176 -176 l57 -27 2935 0 2935
0 57 27 c73 34 142 103 176 176 32 69 42 196 21 270 -15 54 -803 1246 -865
1307 -53 53 -119 93 -193 115 -62 20 -103 20 -2135 19 -1976 0 -2074 -1 -2128
-18z"/>
<path d="M640 2277 c0 -1106 2 -1249 16 -1298 43 -148 168 -274 315 -320 58
-18 111 -19 1269 -19 1158 0 1211 1 1269 19 147 46 272 172 315 320 14 49 16
192 16 1298 l0 1243 -320 0 -320 0 0 -800 0 -800 -960 0 -960 0 0 800 0 800
-320 0 -320 0 0 -1243z"/>
<path d="M5120 2205 c0 -1308 0 -1315 21 -1370 97 -260 501 -260 598 0 21 55
21 62 21 1370 l0 1315 -320 0 -320 0 0 -1315z"/>
</g>
</svg>
